<!DOCTYPE svg PUBLIC "-//W3C//DTD SVG 1.1//EN" "http://www.w3.org/Graphics/SVG/1.1/DTD/svg11.dtd">
<!-- Uploaded to: SVG Repo, www.svgrepo.com, Transformed by: SVG Repo Mixer Tools -->
<svg fill="#0066cc" height="64px" width="64px" version="1.1" id="Capa_1" xmlns="http://www.w3.org/2000/svg" xmlns:xlink="http://www.w3.org/1999/xlink" viewBox="0 0 612 612" xml:space="preserve" stroke="#0066cc">
<g id="SVGRepo_bgCarrier" stroke-width="0"/>
<g id="SVGRepo_tracerCarrier" stroke-linecap="round" stroke-linejoin="round"/>
<g id="SVGRepo_iconCarrier"> <g> <path d="M567.297,106.951C416.932,18.793,306.283,0,306.283,0S306.166,0.018,306,0.049C305.834,0.018,305.717,0,305.717,0 S195.062,18.793,44.703,106.951c0,0-19.938,445.063,261.014,505.049c0.098-0.018,0.185-0.049,0.283-0.068 c0.098,0.018,0.185,0.049,0.283,0.068C587.229,552.014,567.297,106.951,567.297,106.951z M306.302,37.79 c24.615,5.323,111.049,27.451,223.778,90.686c-0.492,82.194-14.553,393.213-223.778,445.482V37.79L306.302,37.79z"/> </g> </g>
</svg>